<svg xmlns="http://www.w3.org/2000/svg" xmlns:xlink="http://www.w3.org/1999/xlink" width="1080" zoomAndPan="magnify" viewBox="0 0 810 809.999993" height="1080" preserveAspectRatio="xMidYMid meet" version="1.0"><path fill="#161618" d="M 809.800781 404.898438 C 809.800781 411.527344 809.636719 418.148438 809.3125 424.765625 C 808.988281 431.386719 808.5 437.992188 807.851562 444.585938 C 807.199219 451.179688 806.390625 457.757812 805.417969 464.3125 C 804.445312 470.867188 803.3125 477.394531 802.019531 483.890625 C 800.726562 490.390625 799.273438 496.855469 797.664062 503.28125 C 796.054688 509.710938 794.289062 516.09375 792.363281 522.4375 C 790.441406 528.777344 788.363281 535.066406 786.128906 541.304688 C 783.898438 547.546875 781.515625 553.726562 778.976562 559.847656 C 776.441406 565.96875 773.757812 572.027344 770.925781 578.015625 C 768.089844 584.007812 765.113281 589.925781 761.988281 595.769531 C 758.867188 601.613281 755.601562 607.375 752.195312 613.058594 C 748.789062 618.742188 745.242188 624.339844 741.5625 629.851562 C 737.878906 635.359375 734.066406 640.777344 730.117188 646.097656 C 726.171875 651.421875 722.09375 656.644531 717.890625 661.765625 C 713.6875 666.886719 709.359375 671.902344 704.910156 676.8125 C 700.460938 681.722656 695.894531 686.523438 691.207031 691.207031 C 686.523438 695.894531 681.722656 700.460938 676.8125 704.910156 C 671.902344 709.359375 666.886719 713.6875 661.765625 717.890625 C 656.644531 722.09375 651.421875 726.171875 646.097656 730.117188 C 640.777344 734.066406 635.359375 737.878906 629.851562 741.5625 C 624.339844 745.242188 618.742188 748.789062 613.058594 752.195312 C 607.375 755.601562 601.613281 758.867188 595.769531 761.988281 C 589.925781 765.113281 584.007812 768.089844 578.015625 770.925781 C 572.027344 773.757812 565.96875 776.441406 559.847656 778.976562 C 553.726562 781.515625 547.546875 783.898438 541.304688 786.132812 C 535.066406 788.363281 528.777344 790.441406 522.4375 792.363281 C 516.09375 794.289062 509.710938 796.054688 503.28125 797.664062 C 496.855469 799.273438 490.390625 800.726562 483.890625 802.019531 C 477.394531 803.3125 470.867188 804.445312 464.3125 805.417969 C 457.757812 806.390625 451.179688 807.199219 444.585938 807.851562 C 437.992188 808.5 431.386719 808.988281 424.765625 809.3125 C 418.148438 809.636719 411.527344 809.800781 404.898438 809.800781 C 398.273438 809.800781 391.652344 809.636719 385.03125 809.3125 C 378.414062 808.988281 371.808594 808.5 365.210938 807.851562 C 358.617188 807.199219 352.042969 806.390625 345.488281 805.417969 C 338.933594 804.445312 332.40625 803.3125 325.90625 802.019531 C 319.410156 800.726562 312.945312 799.273438 306.515625 797.664062 C 300.089844 796.054688 293.703125 794.289062 287.363281 792.363281 C 281.023438 790.441406 274.730469 788.363281 268.492188 786.128906 C 262.253906 783.898438 256.074219 781.515625 249.953125 778.976562 C 243.828125 776.441406 237.773438 773.757812 231.78125 770.925781 C 225.792969 768.089844 219.875 765.113281 214.03125 761.988281 C 208.1875 758.867188 202.421875 755.601562 196.738281 752.195312 C 191.054688 748.789062 185.460938 745.242188 179.949219 741.5625 C 174.441406 737.878906 169.023438 734.066406 163.703125 730.117188 C 158.378906 726.171875 153.15625 722.09375 148.035156 717.890625 C 142.910156 713.6875 137.894531 709.359375 132.984375 704.910156 C 128.074219 700.460938 123.277344 695.894531 118.59375 691.207031 C 113.90625 686.523438 109.339844 681.722656 104.890625 676.8125 C 100.4375 671.902344 96.113281 666.886719 91.90625 661.765625 C 87.703125 656.644531 83.628906 651.421875 79.679688 646.097656 C 75.734375 640.777344 71.917969 635.359375 68.238281 629.851562 C 64.554688 624.339844 61.011719 618.742188 57.605469 613.058594 C 54.199219 607.375 50.933594 601.613281 47.808594 595.769531 C 44.6875 589.925781 41.707031 584.007812 38.875 578.015625 C 36.042969 572.027344 33.355469 565.96875 30.820312 559.847656 C 28.285156 553.726562 25.902344 547.546875 23.667969 541.304688 C 21.4375 535.066406 19.359375 528.777344 17.433594 522.4375 C 15.511719 516.09375 13.746094 509.710938 12.132812 503.28125 C 10.523438 496.855469 9.074219 490.390625 7.78125 483.890625 C 6.488281 477.394531 5.355469 470.867188 4.382812 464.3125 C 3.410156 457.757812 2.597656 451.179688 1.949219 444.585938 C 1.300781 437.992188 0.8125 431.386719 0.488281 424.765625 C 0.164062 418.148438 0 411.527344 0 404.898438 C 0 398.273438 0.164062 391.652344 0.488281 385.03125 C 0.8125 378.414062 1.300781 371.808594 1.949219 365.210938 C 2.597656 358.617188 3.410156 352.042969 4.382812 345.488281 C 5.355469 338.933594 6.488281 332.40625 7.78125 325.90625 C 9.074219 319.410156 10.523438 312.945312 12.132812 306.515625 C 13.746094 300.089844 15.511719 293.703125 17.433594 287.363281 C 19.359375 281.023438 21.4375 274.730469 23.667969 268.492188 C 25.902344 262.253906 28.285156 256.074219 30.820312 249.953125 C 33.355469 243.828125 36.042969 237.773438 38.875 231.78125 C 41.707031 225.792969 44.6875 219.875 47.808594 214.03125 C 50.933594 208.1875 54.199219 202.421875 57.605469 196.738281 C 61.011719 191.054688 64.554688 185.460938 68.238281 179.949219 C 71.917969 174.441406 75.734375 169.023438 79.679688 163.703125 C 83.628906 158.378906 87.703125 153.15625 91.90625 148.035156 C 96.113281 142.910156 100.4375 137.894531 104.890625 132.984375 C 109.339844 128.074219 113.90625 123.277344 118.59375 118.59375 C 123.277344 113.90625 128.074219 109.339844 132.984375 104.890625 C 137.894531 100.4375 142.910156 96.113281 148.035156 91.90625 C 153.15625 87.703125 158.378906 83.628906 163.703125 79.679688 C 169.023438 75.734375 174.441406 71.917969 179.949219 68.238281 C 185.460938 64.554688 191.054688 61.011719 196.738281 57.605469 C 202.421875 54.199219 208.1875 50.933594 214.03125 47.808594 C 219.875 44.6875 225.792969 41.707031 231.78125 38.875 C 237.773438 36.042969 243.828125 33.355469 249.953125 30.820312 C 256.074219 28.285156 262.253906 25.902344 268.492188 23.667969 C 274.730469 21.4375 281.023438 19.359375 287.363281 17.433594 C 293.703125 15.511719 300.089844 13.746094 306.515625 12.132812 C 312.945312 10.523438 319.410156 9.074219 325.90625 7.78125 C 332.40625 6.488281 338.933594 5.355469 345.488281 4.382812 C 352.042969 3.410156 358.617188 2.597656 365.210938 1.949219 C 371.808594 1.300781 378.414062 0.8125 385.03125 0.488281 C 391.652344 0.164062 398.273438 0 404.898438 0 C 411.527344 0 418.148438 0.164062 424.765625 0.488281 C 431.386719 0.8125 437.992188 1.300781 444.585938 1.949219 C 451.179688 2.597656 457.757812 3.410156 464.3125 4.382812 C 470.867188 5.355469 477.394531 6.488281 483.890625 7.78125 C 490.390625 9.074219 496.855469 10.523438 503.28125 12.132812 C 509.710938 13.746094 516.09375 15.511719 522.4375 17.433594 C 528.777344 19.359375 535.066406 21.4375 541.304688 23.667969 C 547.546875 25.902344 553.726562 28.285156 559.847656 30.820312 C 565.96875 33.355469 572.027344 36.042969 578.015625 38.875 C 584.007812 41.707031 589.925781 44.6875 595.769531 47.808594 C 601.613281 50.933594 607.375 54.199219 613.058594 57.605469 C 618.742188 61.011719 624.339844 64.554688 629.851562 68.238281 C 635.359375 71.917969 640.777344 75.734375 646.097656 79.679688 C 651.421875 83.628906 656.644531 87.703125 661.765625 91.90625 C 666.886719 96.113281 671.902344 100.4375 676.8125 104.890625 C 681.722656 109.339844 686.523438 113.90625 691.207031 118.59375 C 695.894531 123.277344 700.460938 128.074219 704.910156 132.984375 C 709.359375 137.894531 713.6875 142.910156 717.890625 148.035156 C 722.09375 153.15625 726.171875 158.378906 730.117188 163.703125 C 734.066406 169.023438 737.878906 174.441406 741.5625 179.949219 C 745.242188 185.460938 748.789062 191.054688 752.195312 196.738281 C 755.601562 202.421875 758.867188 208.1875 761.988281 214.03125 C 765.113281 219.875 768.089844 225.792969 770.925781 231.78125 C 773.757812 237.773438 776.441406 243.828125 778.976562 249.953125 C 781.515625 256.074219 783.898438 262.253906 786.128906 268.492188 C 788.363281 274.730469 790.441406 281.023438 792.363281 287.363281 C 794.289062 293.703125 796.054688 300.089844 797.664062 306.515625 C 799.273438 312.945312 800.726562 319.410156 802.019531 325.90625 C 803.3125 332.40625 804.445312 338.933594 805.417969 345.488281 C 806.390625 352.042969 807.199219 358.617188 807.851562 365.210938 C 808.5 371.808594 808.988281 378.414062 809.3125 385.03125 C 809.636719 391.652344 809.800781 398.273438 809.800781 404.898438 Z M 809.800781 404.898438 " fill-opacity="1" fill-rule="nonzero"/><path fill="#fefefe" d="M 235.492188 288.257812 L 600.441406 289.957031 C 613.859375 290.058594 625.371094 295.664062 633.382812 306.378906 C 641.390625 317.089844 643.695312 329.707031 639.988281 342.621094 L 600.542969 477.988281 C 595.335938 495.8125 579.617188 507.625 561.09375 507.625 L 289.859375 507.625 C 267.230469 507.625 280.648438 488.402344 274.839844 466.476562 L 241.898438 340.921875 C 237.191406 323.097656 203.050781 296.265625 222.375 290.359375 C 226.78125 288.957031 231.183594 288.257812 235.492188 288.257812 Z M 235.492188 288.257812 " fill-opacity="1" fill-rule="evenodd"/><path fill="#fefefe" d="M 566.199219 529.054688 C 577.511719 529.054688 586.722656 538.265625 586.722656 549.578125 C 586.722656 560.890625 577.511719 570.105469 566.199219 570.105469 L 287.753906 570.105469 C 277.542969 570.105469 269.132812 562.792969 267.429688 553.082031 L 186.230469 241.097656 L 148.882812 241.097656 C 137.570312 241.097656 128.359375 231.886719 128.359375 220.574219 C 128.359375 209.160156 137.570312 199.945312 148.882812 199.945312 L 202.050781 199.945312 L 202.050781 200.046875 C 211.160156 200.046875 219.472656 206.15625 221.875 215.367188 L 303.574219 529.054688 Z M 566.199219 529.054688 " fill-opacity="1" fill-rule="nonzero"/><path fill="#fefefe" d="M 374.664062 623.871094 C 374.664062 624.878906 374.613281 625.886719 374.515625 626.894531 C 374.414062 627.898438 374.265625 628.894531 374.070312 629.886719 C 373.871094 630.878906 373.628906 631.855469 373.335938 632.820312 C 373.042969 633.789062 372.703125 634.738281 372.316406 635.671875 C 371.929688 636.605469 371.496094 637.515625 371.019531 638.40625 C 370.546875 639.296875 370.027344 640.164062 369.464844 641.003906 C 368.902344 641.84375 368.304688 642.652344 367.664062 643.433594 C 367.023438 644.214844 366.34375 644.960938 365.628906 645.675781 C 364.917969 646.390625 364.167969 647.066406 363.386719 647.707031 C 362.605469 648.347656 361.796875 648.949219 360.957031 649.511719 C 360.117188 650.070312 359.253906 650.589844 358.363281 651.066406 C 357.46875 651.542969 356.558594 651.972656 355.625 652.359375 C 354.691406 652.746094 353.742188 653.085938 352.777344 653.378906 C 351.808594 653.671875 350.832031 653.917969 349.839844 654.117188 C 348.851562 654.3125 347.851562 654.460938 346.847656 654.558594 C 345.84375 654.660156 344.835938 654.707031 343.824219 654.707031 C 342.816406 654.707031 341.808594 654.660156 340.800781 654.558594 C 339.796875 654.460938 338.800781 654.3125 337.808594 654.117188 C 336.816406 653.917969 335.839844 653.671875 334.871094 653.378906 C 333.90625 653.085938 332.957031 652.746094 332.023438 652.359375 C 331.089844 651.972656 330.179688 651.542969 329.289062 651.066406 C 328.398438 650.589844 327.53125 650.070312 326.691406 649.511719 C 325.851562 648.949219 325.042969 648.347656 324.261719 647.707031 C 323.480469 647.066406 322.734375 646.390625 322.019531 645.675781 C 321.304688 644.960938 320.628906 644.214844 319.984375 643.433594 C 319.34375 642.652344 318.746094 641.84375 318.183594 641.003906 C 317.621094 640.164062 317.105469 639.296875 316.628906 638.40625 C 316.152344 637.515625 315.71875 636.605469 315.332031 635.671875 C 314.945312 634.738281 314.609375 633.789062 314.3125 632.820312 C 314.019531 631.855469 313.777344 630.878906 313.578125 629.886719 C 313.382812 628.894531 313.234375 627.898438 313.136719 626.894531 C 313.035156 625.886719 312.988281 624.878906 312.988281 623.871094 C 312.988281 622.859375 313.035156 621.851562 313.136719 620.847656 C 313.234375 619.84375 313.382812 618.84375 313.578125 617.855469 C 313.777344 616.863281 314.019531 615.886719 314.3125 614.917969 C 314.609375 613.953125 314.945312 613.003906 315.332031 612.070312 C 315.71875 611.136719 316.152344 610.222656 316.628906 609.332031 C 317.105469 608.441406 317.621094 607.578125 318.183594 606.738281 C 318.746094 605.898438 319.34375 605.085938 319.984375 604.308594 C 320.628906 603.527344 321.304688 602.777344 322.019531 602.0625 C 322.734375 601.351562 323.480469 600.671875 324.261719 600.03125 C 325.042969 599.390625 325.851562 598.789062 326.691406 598.230469 C 327.53125 597.667969 328.398438 597.148438 329.289062 596.671875 C 330.179688 596.199219 331.089844 595.765625 332.023438 595.378906 C 332.957031 594.992188 333.90625 594.652344 334.871094 594.359375 C 335.839844 594.066406 336.816406 593.820312 337.808594 593.625 C 338.800781 593.425781 339.796875 593.28125 340.800781 593.179688 C 341.808594 593.082031 342.816406 593.03125 343.824219 593.03125 C 344.835938 593.03125 345.84375 593.082031 346.847656 593.179688 C 347.851562 593.28125 348.851562 593.425781 349.839844 593.625 C 350.832031 593.820312 351.808594 594.066406 352.777344 594.359375 C 353.742188 594.652344 354.691406 594.992188 355.625 595.378906 C 356.558594 595.765625 357.46875 596.199219 358.363281 596.671875 C 359.253906 597.148438 360.117188 597.667969 360.957031 598.230469 C 361.796875 598.789062 362.605469 599.390625 363.386719 600.03125 C 364.167969 600.671875 364.917969 601.351562 365.628906 602.0625 C 366.34375 602.777344 367.023438 603.527344 367.664062 604.308594 C 368.304688 605.085938 368.902344 605.898438 369.464844 606.738281 C 370.027344 607.578125 370.546875 608.441406 371.019531 609.332031 C 371.496094 610.222656 371.929688 611.136719 372.316406 612.070312 C 372.703125 613.003906 373.042969 613.953125 373.335938 614.917969 C 373.628906 615.886719 373.871094 616.863281 374.070312 617.855469 C 374.265625 618.84375 374.414062 619.84375 374.515625 620.847656 C 374.613281 621.851562 374.664062 622.859375 374.664062 623.871094 Z M 374.664062 623.871094 " fill-opacity="1" fill-rule="nonzero"/><path fill="#fefefe" d="M 545.171875 623.871094 C 545.171875 624.878906 545.125 625.886719 545.023438 626.894531 C 544.925781 627.898438 544.777344 628.894531 544.582031 629.886719 C 544.382812 630.878906 544.136719 631.855469 543.84375 632.820312 C 543.550781 633.789062 543.210938 634.738281 542.824219 635.671875 C 542.4375 636.605469 542.007812 637.515625 541.53125 638.40625 C 541.054688 639.296875 540.535156 640.164062 539.976562 641.003906 C 539.414062 641.84375 538.8125 642.652344 538.171875 643.433594 C 537.53125 644.214844 536.855469 644.960938 536.140625 645.675781 C 535.425781 646.390625 534.679688 647.066406 533.898438 647.707031 C 533.117188 648.347656 532.308594 648.949219 531.46875 649.511719 C 530.628906 650.070312 529.761719 650.589844 528.871094 651.066406 C 527.980469 651.542969 527.070312 651.972656 526.136719 652.359375 C 525.203125 652.746094 524.253906 653.085938 523.285156 653.378906 C 522.320312 653.671875 521.339844 653.917969 520.351562 654.117188 C 519.359375 654.3125 518.363281 654.460938 517.359375 654.558594 C 516.351562 654.660156 515.34375 654.707031 514.335938 654.707031 C 513.324219 654.707031 512.316406 654.660156 511.3125 654.558594 C 510.308594 654.460938 509.308594 654.3125 508.320312 654.117188 C 507.328125 653.917969 506.351562 653.671875 505.382812 653.378906 C 504.417969 653.085938 503.46875 652.746094 502.535156 652.359375 C 501.601562 651.972656 500.6875 651.542969 499.796875 651.066406 C 498.90625 650.589844 498.042969 650.070312 497.203125 649.511719 C 496.363281 648.949219 495.550781 648.347656 494.773438 647.707031 C 493.992188 647.066406 493.242188 646.390625 492.527344 645.675781 C 491.816406 644.960938 491.136719 644.214844 490.496094 643.433594 C 489.855469 642.652344 489.253906 641.84375 488.695312 641.003906 C 488.132812 640.164062 487.613281 639.296875 487.136719 638.40625 C 486.660156 637.515625 486.230469 636.605469 485.84375 635.671875 C 485.457031 634.738281 485.117188 633.789062 484.824219 632.820312 C 484.53125 631.855469 484.285156 630.878906 484.089844 629.886719 C 483.890625 628.894531 483.746094 627.898438 483.644531 626.894531 C 483.546875 625.886719 483.496094 624.878906 483.496094 623.871094 C 483.496094 622.859375 483.546875 621.851562 483.644531 620.847656 C 483.746094 619.84375 483.890625 618.84375 484.089844 617.855469 C 484.285156 616.863281 484.53125 615.886719 484.824219 614.917969 C 485.117188 613.953125 485.457031 613.003906 485.84375 612.070312 C 486.230469 611.136719 486.660156 610.222656 487.136719 609.332031 C 487.613281 608.441406 488.132812 607.578125 488.695312 606.738281 C 489.253906 605.898438 489.855469 605.085938 490.496094 604.308594 C 491.136719 603.527344 491.816406 602.777344 492.527344 602.0625 C 493.242188 601.351562 493.992188 600.671875 494.773438 600.03125 C 495.550781 599.390625 496.363281 598.789062 497.203125 598.230469 C 498.042969 597.667969 498.90625 597.148438 499.796875 596.671875 C 500.6875 596.199219 501.601562 595.765625 502.535156 595.378906 C 503.464844 594.992188 504.417969 594.652344 505.382812 594.359375 C 506.351562 594.066406 507.328125 593.820312 508.320312 593.625 C 509.308594 593.425781 510.308594 593.28125 511.3125 593.179688 C 512.316406 593.082031 513.324219 593.03125 514.335938 593.03125 C 515.34375 593.03125 516.351562 593.082031 517.359375 593.179688 C 518.363281 593.28125 519.359375 593.425781 520.351562 593.625 C 521.339844 593.820312 522.320312 594.066406 523.285156 594.359375 C 524.253906 594.652344 525.203125 594.992188 526.136719 595.378906 C 527.070312 595.765625 527.980469 596.199219 528.871094 596.671875 C 529.761719 597.148438 530.628906 597.667969 531.46875 598.230469 C 532.308594 598.789062 533.117188 599.390625 533.898438 600.03125 C 534.679688 600.671875 535.425781 601.351562 536.140625 602.0625 C 536.855469 602.777344 537.53125 603.527344 538.171875 604.308594 C 538.8125 605.085938 539.414062 605.898438 539.976562 606.738281 C 540.535156 607.578125 541.054688 608.441406 541.53125 609.332031 C 542.007812 610.222656 542.4375 611.136719 542.824219 612.070312 C 543.210938 613.003906 543.550781 613.953125 543.84375 614.917969 C 544.136719 615.886719 544.382812 616.863281 544.582031 617.855469 C 544.777344 618.84375 544.925781 619.84375 545.023438 620.847656 C 545.125 621.851562 545.171875 622.859375 545.171875 623.871094 Z M 545.171875 623.871094 " fill-opacity="1" fill-rule="nonzero"/></svg>