<svg xmlns="http://www.w3.org/2000/svg" xmlns:xlink="http://www.w3.org/1999/xlink" zoomAndPan="magnify" viewBox="0 0 224.87999 225" preserveAspectRatio="xMidYMid meet" version="1.0"><defs><g/><clipPath id="c243bdf83a"><path d="M 0 0.0585938 L 224.761719 0.0585938 L 224.761719 224.9375 L 0 224.9375 Z M 0 0.0585938 " clip-rule="nonzero"/></clipPath><clipPath id="a39ec816dc"><path d="M 8.167969 8.136719 L 216.898438 8.136719 L 216.898438 216.863281 L 8.167969 216.863281 Z M 8.167969 8.136719 " clip-rule="nonzero"/></clipPath><clipPath id="115d91ef3b"><path d="M 112.53125 8.136719 C 54.894531 8.136719 8.167969 54.859375 8.167969 112.5 C 8.167969 170.140625 54.894531 216.863281 112.53125 216.863281 C 170.171875 216.863281 216.898438 170.140625 216.898438 112.5 C 216.898438 54.859375 170.171875 8.136719 112.53125 8.136719 Z M 112.53125 8.136719 " clip-rule="nonzero"/></clipPath><clipPath id="41101fd99a"><path d="M 8.167969 8.136719 L 216.558594 8.136719 L 216.558594 216.523438 L 8.167969 216.523438 Z M 8.167969 8.136719 " clip-rule="nonzero"/></clipPath><clipPath id="20a979000c"><path d="M 112.53125 8.136719 C 54.894531 8.136719 8.167969 54.859375 8.167969 112.5 C 8.167969 170.136719 54.894531 216.863281 112.53125 216.863281 C 170.171875 216.863281 216.898438 170.136719 216.898438 112.5 C 216.898438 54.859375 170.171875 8.136719 112.53125 8.136719 Z M 112.53125 8.136719 " clip-rule="nonzero"/></clipPath><clipPath id="b7a8ad3be2"><path d="M 73 55.574219 L 152.148438 55.574219 L 152.148438 135 L 73 135 Z M 73 55.574219 " clip-rule="nonzero"/></clipPath><clipPath id="5c07621b40"><path d="M 91.484375 70.824219 L 153.699219 70.824219 L 153.699219 128.542969 L 91.484375 128.542969 Z M 91.484375 70.824219 " clip-rule="nonzero"/></clipPath></defs><g clip-path="url(#c243bdf83a)"></g><g clip-path="url(#a39ec816dc)"><g clip-path="url(#115d91ef3b)"><path fill="#e0dfd8" d="M 8.167969 8.136719 L 216.898438 8.136719 L 216.898438 216.863281 L 8.167969 216.863281 Z M 8.167969 8.136719 " fill-opacity="1" fill-rule="nonzero"/></g></g><g clip-path="url(#41101fd99a)"><g clip-path="url(#20a979000c)"><path stroke-linecap="butt" transform="matrix(0.7496, 0, 0, 0.7496, 8.168225, 8.13525)" fill="none" stroke-linejoin="miter" d="M 139.224966 0.00195873 C 62.334993 0.00195873 -0.000341189 62.332082 -0.000341189 139.227266 C -0.000341189 216.117239 62.334993 278.452573 139.224966 278.452573 C 216.12015 278.452573 278.455484 216.117239 278.455484 139.227266 C 278.455484 62.332082 216.12015 0.00195873 139.224966 0.00195873 Z M 139.224966 0.00195873 " stroke="#000000" stroke-width="4" stroke-opacity="1" stroke-miterlimit="4"/></g></g><g clip-path="url(#b7a8ad3be2)"><path fill="#1f2122" d="M 147.453125 60.492188 C 146.402344 59.449219 145.007812 58.75 143.453125 58.578125 L 119.5625 55.960938 C 116.195312 55.59375 112.84375 56.769531 110.449219 59.164062 L 74.792969 94.820312 C 72.703125 96.910156 72.703125 100.300781 74.792969 102.394531 L 105.550781 133.148438 C 107.644531 135.242188 111.035156 135.242188 113.125 133.148438 L 148.78125 97.492188 C 151.175781 95.097656 152.355469 91.746094 151.984375 88.382812 L 149.363281 64.496094 C 149.195312 62.9375 148.5 61.542969 147.453125 60.492188 Z M 144.398438 63.542969 C 145.667969 64.925781 145.617188 67.054688 144.296875 68.382812 C 142.972656 69.707031 140.839844 69.75 139.457031 68.488281 C 138.191406 67.105469 138.242188 64.976562 139.566406 63.652344 C 140.890625 62.328125 143.023438 62.28125 144.398438 63.542969 Z M 144.398438 63.542969 " fill-opacity="1" fill-rule="nonzero"/></g><g clip-path="url(#5c07621b40)"><path fill="#ffffff" d="M 141.429688 71.984375 C 141.699219 71.3125 142.355469 70.835938 143.128906 70.835938 C 145.449219 70.835938 149.425781 70.835938 151.742188 70.835938 C 152.746094 70.835938 153.558594 71.632812 153.558594 72.613281 C 153.558594 73.59375 152.746094 74.390625 151.742188 74.390625 L 144.355469 74.390625 L 125.902344 120.171875 L 125.898438 120.179688 C 125.625 120.835938 124.976562 121.300781 124.210938 121.300781 L 119.566406 121.300781 C 121.546875 121.417969 123.113281 123.042969 123.113281 125.015625 C 123.113281 127.070312 121.40625 128.738281 119.308594 128.738281 C 117.207031 128.738281 115.5 127.070312 115.5 125.015625 C 115.5 123.046875 117.066406 121.433594 119.046875 121.300781 L 98.871094 121.300781 C 100.851562 121.417969 102.417969 123.042969 102.417969 125.015625 C 102.417969 127.070312 100.710938 128.738281 98.613281 128.738281 C 96.511719 128.738281 94.804688 127.070312 94.804688 125.015625 C 94.804688 123.046875 96.375 121.433594 98.351562 121.300781 L 95.003906 121.300781 C 94 121.300781 93.1875 120.503906 93.1875 119.523438 C 93.1875 118.542969 94 117.746094 95.003906 117.746094 L 122.976562 117.746094 L 125.78125 110.9375 L 95.835938 108.484375 C 94.933594 108.484375 94.148438 107.820312 94.039062 106.917969 C 93.507812 102.53125 92.128906 91.167969 91.601562 86.78125 C 91.484375 85.808594 92.195312 84.921875 93.1875 84.808594 C 93.34375 84.792969 93.460938 84.792969 93.605469 84.808594 L 136.976562 83.679688 Z M 98.617188 123.121094 C 99.6875 123.121094 100.550781 123.96875 100.550781 125.015625 C 100.550781 126.058594 99.683594 126.90625 98.617188 126.90625 C 97.546875 126.90625 96.683594 126.058594 96.683594 125.015625 C 96.683594 123.972656 97.550781 123.121094 98.617188 123.121094 Z M 119.3125 123.121094 C 120.378906 123.121094 121.246094 123.96875 121.246094 125.015625 C 121.246094 126.058594 120.378906 126.90625 119.3125 126.90625 C 118.246094 126.90625 117.378906 126.058594 117.378906 125.015625 C 117.378906 123.972656 118.246094 123.121094 119.3125 123.121094 Z M 123.042969 107.144531 L 127.199219 107.496094 L 129.289062 102.421875 L 129.289062 101.140625 L 123.058594 101.140625 L 123.058594 107.15625 Z M 115.707031 101.128906 L 115.707031 106.546875 L 121.722656 107.035156 L 121.722656 101.125 Z M 108.355469 101.128906 L 108.355469 105.945312 L 114.371094 106.4375 L 114.371094 101.128906 Z M 100.792969 101.128906 L 100.792969 105.324219 L 107.019531 105.835938 L 107.019531 101.128906 Z M 97 101.128906 L 97.476562 105.054688 L 99.457031 105.210938 L 99.457031 101.121094 Z M 96.1875 94.425781 L 96.839844 99.820312 L 99.453125 99.820312 L 99.453125 94.425781 Z M 100.792969 99.820312 L 107.015625 99.820312 L 107.015625 94.425781 L 100.792969 94.425781 Z M 108.355469 99.820312 L 114.371094 99.820312 L 114.371094 94.425781 L 108.355469 94.425781 Z M 115.707031 99.820312 L 121.71875 99.820312 L 121.71875 94.425781 L 115.707031 94.425781 Z M 123.058594 99.820312 L 129.285156 99.820312 L 129.285156 94.425781 L 123.058594 94.425781 Z M 130.621094 94.425781 L 130.621094 99.15625 L 132.566406 94.425781 Z M 95.445312 88.316406 L 96.027344 93.117188 L 99.457031 93.117188 L 99.457031 88.210938 Z M 100.792969 88.160156 L 100.792969 93.097656 L 107.015625 93.097656 L 107.015625 88 Z M 108.355469 87.964844 L 108.355469 93.101562 L 114.371094 93.101562 L 114.371094 87.808594 Z M 115.707031 87.769531 L 115.707031 93.097656 L 121.722656 93.097656 L 121.722656 87.613281 Z M 123.058594 87.578125 L 123.058594 93.09375 L 129.285156 93.09375 L 129.285156 87.414062 Z M 130.621094 87.382812 L 130.621094 93.097656 L 133.105469 93.097656 L 135.503906 87.253906 Z M 130.621094 87.382812 " fill-opacity="1" fill-rule="evenodd"/></g><g fill="#000000" fill-opacity="1"><g transform="translate(30.187548, 157.376666)"><g><path d="M 6.84375 -14.78125 C 8.40625 -14.78125 9.769531 -14.472656 10.9375 -13.859375 C 12.101562 -13.242188 13.003906 -12.375 13.640625 -11.25 C 14.273438 -10.132812 14.59375 -8.847656 14.59375 -7.390625 C 14.59375 -5.941406 14.273438 -4.65625 13.640625 -3.53125 C 13.003906 -2.414062 12.097656 -1.546875 10.921875 -0.921875 C 9.742188 -0.304688 8.382812 0 6.84375 0 L 1.3125 0 L 1.3125 -14.78125 Z M 6.609375 -3.125 C 7.972656 -3.125 9.035156 -3.492188 9.796875 -4.234375 C 10.554688 -4.972656 10.9375 -6.023438 10.9375 -7.390625 C 10.9375 -8.753906 10.554688 -9.8125 9.796875 -10.5625 C 9.035156 -11.320312 7.972656 -11.703125 6.609375 -11.703125 L 4.90625 -11.703125 L 4.90625 -3.125 Z M 6.609375 -3.125 "/></g></g></g><g fill="#000000" fill-opacity="1"><g transform="translate(45.488956, 157.376666)"><g><path d="M 3.125 -12.96875 C 2.488281 -12.96875 1.96875 -13.15625 1.5625 -13.53125 C 1.164062 -13.90625 0.96875 -14.363281 0.96875 -14.90625 C 0.96875 -15.46875 1.164062 -15.9375 1.5625 -16.3125 C 1.96875 -16.6875 2.488281 -16.875 3.125 -16.875 C 3.738281 -16.875 4.242188 -16.6875 4.640625 -16.3125 C 5.046875 -15.9375 5.25 -15.46875 5.25 -14.90625 C 5.25 -14.363281 5.046875 -13.90625 4.640625 -13.53125 C 4.242188 -13.15625 3.738281 -12.96875 3.125 -12.96875 Z M 4.90625 -11.75 L 4.90625 0 L 1.3125 0 L 1.3125 -11.75 Z M 4.90625 -11.75 "/></g></g></g><g fill="#000000" fill-opacity="1"><g transform="translate(51.697919, 157.376666)"><g><path d="M 6.09375 0.171875 C 5.0625 0.171875 4.144531 -0.00390625 3.34375 -0.359375 C 2.539062 -0.710938 1.910156 -1.191406 1.453125 -1.796875 C 0.992188 -2.410156 0.734375 -3.097656 0.671875 -3.859375 L 4.234375 -3.859375 C 4.273438 -3.453125 4.460938 -3.117188 4.796875 -2.859375 C 5.140625 -2.609375 5.554688 -2.484375 6.046875 -2.484375 C 6.492188 -2.484375 6.835938 -2.570312 7.078125 -2.75 C 7.328125 -2.925781 7.453125 -3.15625 7.453125 -3.4375 C 7.453125 -3.769531 7.273438 -4.015625 6.921875 -4.171875 C 6.578125 -4.335938 6.007812 -4.519531 5.21875 -4.71875 C 4.375 -4.914062 3.671875 -5.125 3.109375 -5.34375 C 2.554688 -5.5625 2.070312 -5.90625 1.65625 -6.375 C 1.25 -6.84375 1.046875 -7.476562 1.046875 -8.28125 C 1.046875 -8.945312 1.234375 -9.554688 1.609375 -10.109375 C 1.984375 -10.671875 2.53125 -11.113281 3.25 -11.4375 C 3.976562 -11.757812 4.835938 -11.921875 5.828125 -11.921875 C 7.304688 -11.921875 8.46875 -11.554688 9.3125 -10.828125 C 10.164062 -10.097656 10.65625 -9.128906 10.78125 -7.921875 L 7.453125 -7.921875 C 7.398438 -8.328125 7.222656 -8.648438 6.921875 -8.890625 C 6.617188 -9.128906 6.222656 -9.25 5.734375 -9.25 C 5.304688 -9.25 4.976562 -9.164062 4.75 -9 C 4.53125 -8.84375 4.421875 -8.625 4.421875 -8.34375 C 4.421875 -8 4.597656 -7.742188 4.953125 -7.578125 C 5.316406 -7.410156 5.878906 -7.242188 6.640625 -7.078125 C 7.503906 -6.847656 8.207031 -6.625 8.75 -6.40625 C 9.300781 -6.195312 9.785156 -5.847656 10.203125 -5.359375 C 10.617188 -4.878906 10.832031 -4.226562 10.84375 -3.40625 C 10.84375 -2.71875 10.648438 -2.101562 10.265625 -1.5625 C 9.878906 -1.03125 9.320312 -0.609375 8.59375 -0.296875 C 7.875 0.015625 7.039062 0.171875 6.09375 0.171875 Z M 6.09375 0.171875 "/></g></g></g><g fill="#000000" fill-opacity="1"><g transform="translate(63.44233, 157.376666)"><g><path d="M 0.59375 -5.875 C 0.59375 -7.09375 0.835938 -8.160156 1.328125 -9.078125 C 1.828125 -9.992188 2.523438 -10.695312 3.421875 -11.1875 C 4.316406 -11.675781 5.335938 -11.921875 6.484375 -11.921875 C 7.960938 -11.921875 9.195312 -11.535156 10.1875 -10.765625 C 11.175781 -9.992188 11.820312 -8.90625 12.125 -7.5 L 8.296875 -7.5 C 7.972656 -8.394531 7.347656 -8.84375 6.421875 -8.84375 C 5.765625 -8.84375 5.238281 -8.585938 4.84375 -8.078125 C 4.445312 -7.566406 4.25 -6.832031 4.25 -5.875 C 4.25 -4.914062 4.445312 -4.179688 4.84375 -3.671875 C 5.238281 -3.160156 5.765625 -2.90625 6.421875 -2.90625 C 7.347656 -2.90625 7.972656 -3.351562 8.296875 -4.25 L 12.125 -4.25 C 11.820312 -2.875 11.171875 -1.789062 10.171875 -1 C 9.171875 -0.21875 7.941406 0.171875 6.484375 0.171875 C 5.335938 0.171875 4.316406 -0.0703125 3.421875 -0.5625 C 2.523438 -1.0625 1.828125 -1.765625 1.328125 -2.671875 C 0.835938 -3.585938 0.59375 -4.65625 0.59375 -5.875 Z M 0.59375 -5.875 "/></g></g></g><g fill="#000000" fill-opacity="1"><g transform="translate(76.175967, 157.376666)"><g><path d="M 6.65625 0.171875 C 5.5 0.171875 4.460938 -0.0703125 3.546875 -0.5625 C 2.628906 -1.0625 1.90625 -1.765625 1.375 -2.671875 C 0.851562 -3.585938 0.59375 -4.65625 0.59375 -5.875 C 0.59375 -7.082031 0.859375 -8.144531 1.390625 -9.0625 C 1.921875 -9.988281 2.648438 -10.695312 3.578125 -11.1875 C 4.503906 -11.675781 5.546875 -11.921875 6.703125 -11.921875 C 7.847656 -11.921875 8.882812 -11.675781 9.8125 -11.1875 C 10.738281 -10.695312 11.46875 -9.988281 12 -9.0625 C 12.539062 -8.144531 12.8125 -7.082031 12.8125 -5.875 C 12.8125 -4.664062 12.539062 -3.601562 12 -2.6875 C 11.457031 -1.769531 10.71875 -1.0625 9.78125 -0.5625 C 8.851562 -0.0703125 7.8125 0.171875 6.65625 0.171875 Z M 6.65625 -2.953125 C 7.34375 -2.953125 7.925781 -3.203125 8.40625 -3.703125 C 8.894531 -4.210938 9.140625 -4.9375 9.140625 -5.875 C 9.140625 -6.8125 8.90625 -7.53125 8.4375 -8.03125 C 7.96875 -8.539062 7.390625 -8.796875 6.703125 -8.796875 C 5.992188 -8.796875 5.40625 -8.546875 4.9375 -8.046875 C 4.476562 -7.554688 4.25 -6.832031 4.25 -5.875 C 4.25 -4.9375 4.476562 -4.210938 4.9375 -3.703125 C 5.394531 -3.203125 5.96875 -2.953125 6.65625 -2.953125 Z M 6.65625 -2.953125 "/></g></g></g><g fill="#000000" fill-opacity="1"><g transform="translate(89.583118, 157.376666)"><g><path d="M 12.90625 -11.75 L 12.90625 0 L 9.3125 0 L 9.3125 -1.59375 C 8.945312 -1.082031 8.453125 -0.664062 7.828125 -0.34375 C 7.203125 -0.03125 6.507812 0.125 5.75 0.125 C 4.851562 0.125 4.0625 -0.0703125 3.375 -0.46875 C 2.6875 -0.875 2.148438 -1.453125 1.765625 -2.203125 C 1.390625 -2.960938 1.203125 -3.859375 1.203125 -4.890625 L 1.203125 -11.75 L 4.78125 -11.75 L 4.78125 -5.375 C 4.78125 -4.582031 4.984375 -3.96875 5.390625 -3.53125 C 5.796875 -3.101562 6.34375 -2.890625 7.03125 -2.890625 C 7.738281 -2.890625 8.296875 -3.101562 8.703125 -3.53125 C 9.109375 -3.96875 9.3125 -4.582031 9.3125 -5.375 L 9.3125 -11.75 Z M 12.90625 -11.75 "/></g></g></g><g fill="#000000" fill-opacity="1"><g transform="translate(103.769013, 157.376666)"><g><path d="M 8.46875 -11.875 C 9.84375 -11.875 10.941406 -11.425781 11.765625 -10.53125 C 12.585938 -9.644531 13 -8.421875 13 -6.859375 L 13 0 L 9.421875 0 L 9.421875 -6.375 C 9.421875 -7.164062 9.210938 -7.78125 8.796875 -8.21875 C 8.390625 -8.65625 7.84375 -8.875 7.15625 -8.875 C 6.46875 -8.875 5.921875 -8.65625 5.515625 -8.21875 C 5.109375 -7.78125 4.90625 -7.164062 4.90625 -6.375 L 4.90625 0 L 1.3125 0 L 1.3125 -11.75 L 4.90625 -11.75 L 4.90625 -10.1875 C 5.269531 -10.707031 5.757812 -11.117188 6.375 -11.421875 C 7 -11.722656 7.695312 -11.875 8.46875 -11.875 Z M 8.46875 -11.875 "/></g></g></g><g fill="#000000" fill-opacity="1"><g transform="translate(117.954908, 157.376666)"><g><path d="M 7.859375 -3.046875 L 7.859375 0 L 6.03125 0 C 4.71875 0 3.695312 -0.316406 2.96875 -0.953125 C 2.238281 -1.597656 1.875 -2.644531 1.875 -4.09375 L 1.875 -8.765625 L 0.4375 -8.765625 L 0.4375 -11.75 L 1.875 -11.75 L 1.875 -14.625 L 5.46875 -14.625 L 5.46875 -11.75 L 7.828125 -11.75 L 7.828125 -8.765625 L 5.46875 -8.765625 L 5.46875 -4.046875 C 5.46875 -3.691406 5.550781 -3.4375 5.71875 -3.28125 C 5.894531 -3.125 6.179688 -3.046875 6.578125 -3.046875 Z M 7.859375 -3.046875 "/></g></g></g><g fill="#000000" fill-opacity="1"><g transform="translate(126.500126, 157.376666)"><g><path d="M 10.9375 -14.78125 L 10.9375 -11.90625 L 4.90625 -11.90625 L 4.90625 -8.78125 L 9.421875 -8.78125 L 9.421875 -5.984375 L 4.90625 -5.984375 L 4.90625 0 L 1.3125 0 L 1.3125 -14.78125 Z M 10.9375 -14.78125 "/></g></g></g><g fill="#000000" fill-opacity="1"><g transform="translate(138.013009, 157.376666)"><g><path d="M 3.125 -12.96875 C 2.488281 -12.96875 1.96875 -13.15625 1.5625 -13.53125 C 1.164062 -13.90625 0.96875 -14.363281 0.96875 -14.90625 C 0.96875 -15.46875 1.164062 -15.9375 1.5625 -16.3125 C 1.96875 -16.6875 2.488281 -16.875 3.125 -16.875 C 3.738281 -16.875 4.242188 -16.6875 4.640625 -16.3125 C 5.046875 -15.9375 5.25 -15.46875 5.25 -14.90625 C 5.25 -14.363281 5.046875 -13.90625 4.640625 -13.53125 C 4.242188 -13.15625 3.738281 -12.96875 3.125 -12.96875 Z M 4.90625 -11.75 L 4.90625 0 L 1.3125 0 L 1.3125 -11.75 Z M 4.90625 -11.75 "/></g></g></g><g fill="#000000" fill-opacity="1"><g transform="translate(144.221972, 157.376666)"><g><path d="M 8.46875 -11.875 C 9.84375 -11.875 10.941406 -11.425781 11.765625 -10.53125 C 12.585938 -9.644531 13 -8.421875 13 -6.859375 L 13 0 L 9.421875 0 L 9.421875 -6.375 C 9.421875 -7.164062 9.210938 -7.78125 8.796875 -8.21875 C 8.390625 -8.65625 7.84375 -8.875 7.15625 -8.875 C 6.46875 -8.875 5.921875 -8.65625 5.515625 -8.21875 C 5.109375 -7.78125 4.90625 -7.164062 4.90625 -6.375 L 4.90625 0 L 1.3125 0 L 1.3125 -11.75 L 4.90625 -11.75 L 4.90625 -10.1875 C 5.269531 -10.707031 5.757812 -11.117188 6.375 -11.421875 C 7 -11.722656 7.695312 -11.875 8.46875 -11.875 Z M 8.46875 -11.875 "/></g></g></g><g fill="#000000" fill-opacity="1"><g transform="translate(158.407867, 157.376666)"><g><path d="M 0.59375 -5.890625 C 0.59375 -7.097656 0.816406 -8.160156 1.265625 -9.078125 C 1.722656 -9.992188 2.34375 -10.695312 3.125 -11.1875 C 3.914062 -11.675781 4.796875 -11.921875 5.765625 -11.921875 C 6.535156 -11.921875 7.238281 -11.757812 7.875 -11.4375 C 8.519531 -11.113281 9.023438 -10.675781 9.390625 -10.125 L 9.390625 -15.59375 L 13 -15.59375 L 13 0 L 9.390625 0 L 9.390625 -1.6875 C 9.054688 -1.125 8.578125 -0.671875 7.953125 -0.328125 C 7.328125 0.00390625 6.597656 0.171875 5.765625 0.171875 C 4.796875 0.171875 3.914062 -0.078125 3.125 -0.578125 C 2.34375 -1.078125 1.722656 -1.785156 1.265625 -2.703125 C 0.816406 -3.628906 0.59375 -4.691406 0.59375 -5.890625 Z M 9.390625 -5.875 C 9.390625 -6.769531 9.140625 -7.476562 8.640625 -8 C 8.148438 -8.519531 7.546875 -8.78125 6.828125 -8.78125 C 6.109375 -8.78125 5.5 -8.523438 5 -8.015625 C 4.5 -7.503906 4.25 -6.796875 4.25 -5.890625 C 4.25 -4.992188 4.5 -4.28125 5 -3.75 C 5.5 -3.226562 6.109375 -2.96875 6.828125 -2.96875 C 7.546875 -2.96875 8.148438 -3.226562 8.640625 -3.75 C 9.140625 -4.269531 9.390625 -4.976562 9.390625 -5.875 Z M 9.390625 -5.875 "/></g></g></g><g fill="#000000" fill-opacity="1"><g transform="translate(172.699004, 157.376666)"><g><path d="M 12.390625 -6.0625 C 12.390625 -5.726562 12.367188 -5.378906 12.328125 -5.015625 L 4.171875 -5.015625 C 4.222656 -4.285156 4.457031 -3.726562 4.875 -3.34375 C 5.289062 -2.957031 5.800781 -2.765625 6.40625 -2.765625 C 7.300781 -2.765625 7.925781 -3.140625 8.28125 -3.890625 L 12.109375 -3.890625 C 11.910156 -3.117188 11.554688 -2.425781 11.046875 -1.8125 C 10.535156 -1.195312 9.894531 -0.710938 9.125 -0.359375 C 8.351562 -0.00390625 7.488281 0.171875 6.53125 0.171875 C 5.375 0.171875 4.347656 -0.0703125 3.453125 -0.5625 C 2.554688 -1.0625 1.851562 -1.765625 1.34375 -2.671875 C 0.84375 -3.585938 0.59375 -4.65625 0.59375 -5.875 C 0.59375 -7.09375 0.835938 -8.160156 1.328125 -9.078125 C 1.828125 -9.992188 2.523438 -10.695312 3.421875 -11.1875 C 4.328125 -11.675781 5.363281 -11.921875 6.53125 -11.921875 C 7.664062 -11.921875 8.675781 -11.679688 9.5625 -11.203125 C 10.445312 -10.722656 11.140625 -10.039062 11.640625 -9.15625 C 12.140625 -8.269531 12.390625 -7.238281 12.390625 -6.0625 Z M 8.703125 -7.015625 C 8.703125 -7.628906 8.488281 -8.117188 8.0625 -8.484375 C 7.644531 -8.847656 7.117188 -9.03125 6.484375 -9.03125 C 5.878906 -9.03125 5.367188 -8.851562 4.953125 -8.5 C 4.546875 -8.15625 4.289062 -7.660156 4.1875 -7.015625 Z M 8.703125 -7.015625 "/></g></g></g><g fill="#000000" fill-opacity="1"><g transform="translate(185.664157, 157.376666)"><g><path d="M 4.90625 -9.796875 C 5.332031 -10.441406 5.859375 -10.945312 6.484375 -11.3125 C 7.117188 -11.6875 7.820312 -11.875 8.59375 -11.875 L 8.59375 -8.0625 L 7.609375 -8.0625 C 6.703125 -8.0625 6.023438 -7.867188 5.578125 -7.484375 C 5.128906 -7.097656 4.90625 -6.421875 4.90625 -5.453125 L 4.90625 0 L 1.3125 0 L 1.3125 -11.75 L 4.90625 -11.75 Z M 4.90625 -9.796875 "/></g></g></g><g fill="#000000" fill-opacity="1"><g transform="translate(38.158226, 167.591486)"><g><path d="M 2.84375 -4.09375 L 2.84375 -3.546875 L 1.109375 -3.546875 L 1.109375 -2.34375 L 2.46875 -2.34375 L 2.46875 -1.796875 L 1.109375 -1.796875 L 1.109375 0 L 0.4375 0 L 0.4375 -4.09375 Z M 2.84375 -4.09375 "/></g></g></g><g fill="#000000" fill-opacity="1"><g transform="translate(42.47641, 167.591486)"><g><path d="M 1.109375 -4.09375 L 1.109375 0 L 0.4375 0 L 0.4375 -4.09375 Z M 1.109375 -4.09375 "/></g></g></g><g fill="#000000" fill-opacity="1"><g transform="translate(45.315928, 167.591486)"><g><path d="M 3.8125 0 L 3.140625 0 L 1.109375 -3.0625 L 1.109375 0 L 0.4375 0 L 0.4375 -4.09375 L 1.109375 -4.09375 L 3.140625 -1.046875 L 3.140625 -4.09375 L 3.8125 -4.09375 Z M 3.8125 0 "/></g></g></g><g fill="#000000" fill-opacity="1"><g transform="translate(50.847683, 167.591486)"><g><path d="M 1.78125 -4.09375 C 2.21875 -4.09375 2.597656 -4.007812 2.921875 -3.84375 C 3.253906 -3.675781 3.507812 -3.4375 3.6875 -3.125 C 3.863281 -2.8125 3.953125 -2.445312 3.953125 -2.03125 C 3.953125 -1.613281 3.863281 -1.25 3.6875 -0.9375 C 3.507812 -0.632812 3.253906 -0.398438 2.921875 -0.234375 C 2.597656 -0.078125 2.21875 0 1.78125 0 L 0.4375 0 L 0.4375 -4.09375 Z M 1.78125 -0.546875 C 2.257812 -0.546875 2.625 -0.675781 2.875 -0.9375 C 3.132812 -1.195312 3.265625 -1.5625 3.265625 -2.03125 C 3.265625 -2.507812 3.132812 -2.878906 2.875 -3.140625 C 2.625 -3.410156 2.257812 -3.546875 1.78125 -3.546875 L 1.109375 -3.546875 L 1.109375 -0.546875 Z M 1.78125 -0.546875 "/></g></g></g><g fill="#000000" fill-opacity="1"><g transform="translate(56.308747, 167.591486)"><g/></g></g><g fill="#000000" fill-opacity="1"><g transform="translate(59.124699, 167.591486)"><g><path d="M 3.09375 -4.09375 L 3.09375 -3.546875 L 2 -3.546875 L 2 0 L 1.328125 0 L 1.328125 -3.546875 L 0.234375 -3.546875 L 0.234375 -4.09375 Z M 3.09375 -4.09375 "/></g></g></g><g fill="#000000" fill-opacity="1"><g transform="translate(63.731553, 167.591486)"><g><path d="M 1.109375 -4.09375 L 1.109375 0 L 0.4375 0 L 0.4375 -4.09375 Z M 1.109375 -4.09375 "/></g></g></g><g fill="#000000" fill-opacity="1"><g transform="translate(66.571071, 167.591486)"><g><path d="M 1.109375 -0.546875 L 2.5 -0.546875 L 2.5 0 L 0.4375 0 L 0.4375 -4.09375 L 1.109375 -4.09375 Z M 1.109375 -0.546875 "/></g></g></g><g fill="#000000" fill-opacity="1"><g transform="translate(70.470984, 167.591486)"><g><path d="M 2.640625 -2.109375 C 2.859375 -2.066406 3.039062 -1.945312 3.1875 -1.75 C 3.34375 -1.5625 3.421875 -1.34375 3.421875 -1.09375 C 3.421875 -0.894531 3.363281 -0.707031 3.25 -0.53125 C 3.144531 -0.363281 2.988281 -0.234375 2.78125 -0.140625 C 2.582031 -0.046875 2.347656 0 2.078125 0 L 0.4375 0 L 0.4375 -4.09375 L 2 -4.09375 C 2.28125 -4.09375 2.519531 -4.046875 2.71875 -3.953125 C 2.914062 -3.859375 3.066406 -3.726562 3.171875 -3.5625 C 3.273438 -3.40625 3.328125 -3.234375 3.328125 -3.046875 C 3.328125 -2.804688 3.265625 -2.609375 3.140625 -2.453125 C 3.015625 -2.296875 2.847656 -2.179688 2.640625 -2.109375 Z M 1.109375 -2.375 L 1.9375 -2.375 C 2.164062 -2.375 2.335938 -2.421875 2.453125 -2.515625 C 2.578125 -2.617188 2.640625 -2.765625 2.640625 -2.953125 C 2.640625 -3.140625 2.578125 -3.285156 2.453125 -3.390625 C 2.335938 -3.492188 2.164062 -3.546875 1.9375 -3.546875 L 1.109375 -3.546875 Z M 2.015625 -0.546875 C 2.242188 -0.546875 2.421875 -0.597656 2.546875 -0.703125 C 2.679688 -0.816406 2.75 -0.972656 2.75 -1.171875 C 2.75 -1.367188 2.679688 -1.523438 2.546875 -1.640625 C 2.410156 -1.765625 2.226562 -1.828125 2 -1.828125 L 1.109375 -1.828125 L 1.109375 -0.546875 Z M 2.015625 -0.546875 "/></g></g></g><g fill="#000000" fill-opacity="1"><g transform="translate(75.466652, 167.591486)"><g><path d="M 1.109375 -4.09375 L 1.109375 -1.484375 C 1.109375 -1.171875 1.1875 -0.9375 1.34375 -0.78125 C 1.507812 -0.625 1.738281 -0.546875 2.03125 -0.546875 C 2.320312 -0.546875 2.550781 -0.625 2.71875 -0.78125 C 2.882812 -0.9375 2.96875 -1.171875 2.96875 -1.484375 L 2.96875 -4.09375 L 3.640625 -4.09375 L 3.640625 -1.5 C 3.640625 -1.164062 3.566406 -0.878906 3.421875 -0.640625 C 3.273438 -0.410156 3.078125 -0.238281 2.828125 -0.125 C 2.585938 -0.0078125 2.320312 0.046875 2.03125 0.046875 C 1.726562 0.046875 1.457031 -0.0078125 1.21875 -0.125 C 0.976562 -0.238281 0.785156 -0.410156 0.640625 -0.640625 C 0.503906 -0.878906 0.4375 -1.164062 0.4375 -1.5 L 0.4375 -4.09375 Z M 1.109375 -4.09375 "/></g></g></g><g fill="#000000" fill-opacity="1"><g transform="translate(80.815785, 167.591486)"><g><path d="M 1.78125 -4.09375 C 2.21875 -4.09375 2.597656 -4.007812 2.921875 -3.84375 C 3.253906 -3.675781 3.507812 -3.4375 3.6875 -3.125 C 3.863281 -2.8125 3.953125 -2.445312 3.953125 -2.03125 C 3.953125 -1.613281 3.863281 -1.25 3.6875 -0.9375 C 3.507812 -0.632812 3.253906 -0.398438 2.921875 -0.234375 C 2.597656 -0.078125 2.21875 0 1.78125 0 L 0.4375 0 L 0.4375 -4.09375 Z M 1.78125 -0.546875 C 2.257812 -0.546875 2.625 -0.675781 2.875 -0.9375 C 3.132812 -1.195312 3.265625 -1.5625 3.265625 -2.03125 C 3.265625 -2.507812 3.132812 -2.878906 2.875 -3.140625 C 2.625 -3.410156 2.257812 -3.546875 1.78125 -3.546875 L 1.109375 -3.546875 L 1.109375 -0.546875 Z M 1.78125 -0.546875 "/></g></g></g><g fill="#000000" fill-opacity="1"><g transform="translate(86.276847, 167.591486)"><g><path d="M 1.78125 -4.09375 C 2.21875 -4.09375 2.597656 -4.007812 2.921875 -3.84375 C 3.253906 -3.675781 3.507812 -3.4375 3.6875 -3.125 C 3.863281 -2.8125 3.953125 -2.445312 3.953125 -2.03125 C 3.953125 -1.613281 3.863281 -1.25 3.6875 -0.9375 C 3.507812 -0.632812 3.253906 -0.398438 2.921875 -0.234375 C 2.597656 -0.078125 2.21875 0 1.78125 0 L 0.4375 0 L 0.4375 -4.09375 Z M 1.78125 -0.546875 C 2.257812 -0.546875 2.625 -0.675781 2.875 -0.9375 C 3.132812 -1.195312 3.265625 -1.5625 3.265625 -2.03125 C 3.265625 -2.507812 3.132812 -2.878906 2.875 -3.140625 C 2.625 -3.410156 2.257812 -3.546875 1.78125 -3.546875 L 1.109375 -3.546875 L 1.109375 -0.546875 Z M 1.78125 -0.546875 "/></g></g></g><g fill="#000000" fill-opacity="1"><g transform="translate(91.737909, 167.591486)"><g><path d="M 1.109375 -3.546875 L 1.109375 -2.34375 L 2.53125 -2.34375 L 2.53125 -1.796875 L 1.109375 -1.796875 L 1.109375 -0.546875 L 2.703125 -0.546875 L 2.703125 0 L 0.4375 0 L 0.4375 -4.09375 L 2.703125 -4.09375 L 2.703125 -3.546875 Z M 1.109375 -3.546875 "/></g></g></g><g fill="#000000" fill-opacity="1"><g transform="translate(96.109113, 167.591486)"><g><path d="M 3.8125 0 L 3.140625 0 L 1.109375 -3.0625 L 1.109375 0 L 0.4375 0 L 0.4375 -4.09375 L 1.109375 -4.09375 L 3.140625 -1.046875 L 3.140625 -4.09375 L 3.8125 -4.09375 Z M 3.8125 0 "/></g></g></g><g fill="#000000" fill-opacity="1"><g transform="translate(101.64087, 167.591486)"><g><path d="M 1.109375 -3.546875 L 1.109375 -2.34375 L 2.53125 -2.34375 L 2.53125 -1.796875 L 1.109375 -1.796875 L 1.109375 -0.546875 L 2.703125 -0.546875 L 2.703125 0 L 0.4375 0 L 0.4375 -4.09375 L 2.703125 -4.09375 L 2.703125 -3.546875 Z M 1.109375 -3.546875 "/></g></g></g><g fill="#000000" fill-opacity="1"><g transform="translate(106.012074, 167.591486)"><g/></g></g><g fill="#000000" fill-opacity="1"><g transform="translate(108.828023, 167.591486)"><g><path d="M 2.84375 -4.09375 L 2.84375 -3.546875 L 1.109375 -3.546875 L 1.109375 -2.34375 L 2.46875 -2.34375 L 2.46875 -1.796875 L 1.109375 -1.796875 L 1.109375 0 L 0.4375 0 L 0.4375 -4.09375 Z M 2.84375 -4.09375 "/></g></g></g><g fill="#000000" fill-opacity="1"><g transform="translate(113.146206, 167.591486)"><g><path d="M 3.875 -3.46875 C 4.039062 -3.28125 4.171875 -3.066406 4.265625 -2.828125 C 4.359375 -2.585938 4.40625 -2.332031 4.40625 -2.0625 C 4.40625 -1.65625 4.3125 -1.289062 4.125 -0.96875 C 3.9375 -0.65625 3.679688 -0.40625 3.359375 -0.21875 C 3.046875 -0.0390625 2.695312 0.046875 2.3125 0.046875 C 2.070312 0.046875 1.84375 0.0078125 1.625 -0.0625 C 1.40625 -0.132812 1.207031 -0.238281 1.03125 -0.375 L 0.6875 0 L 0.15625 0 L 0.75 -0.640625 C 0.582031 -0.828125 0.453125 -1.039062 0.359375 -1.28125 C 0.265625 -1.519531 0.21875 -1.78125 0.21875 -2.0625 C 0.21875 -2.457031 0.3125 -2.8125 0.5 -3.125 C 0.6875 -3.445312 0.9375 -3.695312 1.25 -3.875 C 1.570312 -4.050781 1.925781 -4.140625 2.3125 -4.140625 C 2.550781 -4.140625 2.78125 -4.101562 3 -4.03125 C 3.21875 -3.96875 3.414062 -3.867188 3.59375 -3.734375 L 3.921875 -4.09375 L 4.46875 -4.09375 Z M 0.90625 -2.0625 C 0.90625 -1.695312 0.992188 -1.378906 1.171875 -1.109375 L 3.171875 -3.28125 C 2.921875 -3.46875 2.632812 -3.5625 2.3125 -3.5625 C 2.039062 -3.5625 1.796875 -3.5 1.578125 -3.375 C 1.367188 -3.25 1.203125 -3.070312 1.078125 -2.84375 C 0.960938 -2.625 0.90625 -2.363281 0.90625 -2.0625 Z M 3.71875 -2.0625 C 3.71875 -2.425781 3.628906 -2.738281 3.453125 -3 L 1.453125 -0.828125 C 1.679688 -0.640625 1.96875 -0.546875 2.3125 -0.546875 C 2.582031 -0.546875 2.820312 -0.601562 3.03125 -0.71875 C 3.25 -0.84375 3.414062 -1.019531 3.53125 -1.25 C 3.65625 -1.488281 3.71875 -1.757812 3.71875 -2.0625 Z M 3.71875 -2.0625 "/></g></g></g><g fill="#000000" fill-opacity="1"><g transform="translate(119.049104, 167.591486)"><g><path d="M 2.5625 0 L 1.625 -1.640625 L 1.109375 -1.640625 L 1.109375 0 L 0.4375 0 L 0.4375 -4.09375 L 1.859375 -4.09375 C 2.171875 -4.09375 2.4375 -4.035156 2.65625 -3.921875 C 2.875 -3.816406 3.035156 -3.671875 3.140625 -3.484375 C 3.242188 -3.296875 3.296875 -3.09375 3.296875 -2.875 C 3.296875 -2.601562 3.21875 -2.359375 3.0625 -2.140625 C 2.914062 -1.921875 2.679688 -1.773438 2.359375 -1.703125 L 3.375 0 Z M 1.109375 -2.171875 L 1.859375 -2.171875 C 2.109375 -2.171875 2.296875 -2.234375 2.421875 -2.359375 C 2.546875 -2.484375 2.609375 -2.65625 2.609375 -2.875 C 2.609375 -3.082031 2.546875 -3.242188 2.421875 -3.359375 C 2.296875 -3.484375 2.109375 -3.546875 1.859375 -3.546875 L 1.109375 -3.546875 Z M 1.109375 -2.171875 "/></g></g></g><g fill="#000000" fill-opacity="1"><g transform="translate(124.056555, 167.591486)"><g/></g></g><g fill="#000000" fill-opacity="1"><g transform="translate(126.872505, 167.591486)"><g><path d="M 1.78125 -4.09375 C 2.21875 -4.09375 2.597656 -4.007812 2.921875 -3.84375 C 3.253906 -3.675781 3.507812 -3.4375 3.6875 -3.125 C 3.863281 -2.8125 3.953125 -2.445312 3.953125 -2.03125 C 3.953125 -1.613281 3.863281 -1.25 3.6875 -0.9375 C 3.507812 -0.632812 3.253906 -0.398438 2.921875 -0.234375 C 2.597656 -0.078125 2.21875 0 1.78125 0 L 0.4375 0 L 0.4375 -4.09375 Z M 1.78125 -0.546875 C 2.257812 -0.546875 2.625 -0.675781 2.875 -0.9375 C 3.132812 -1.195312 3.265625 -1.5625 3.265625 -2.03125 C 3.265625 -2.507812 3.132812 -2.878906 2.875 -3.140625 C 2.625 -3.410156 2.257812 -3.546875 1.78125 -3.546875 L 1.109375 -3.546875 L 1.109375 -0.546875 Z M 1.78125 -0.546875 "/></g></g></g><g fill="#000000" fill-opacity="1"><g transform="translate(132.333567, 167.591486)"><g><path d="M 1.109375 -3.546875 L 1.109375 -2.34375 L 2.53125 -2.34375 L 2.53125 -1.796875 L 1.109375 -1.796875 L 1.109375 -0.546875 L 2.703125 -0.546875 L 2.703125 0 L 0.4375 0 L 0.4375 -4.09375 L 2.703125 -4.09375 L 2.703125 -3.546875 Z M 1.109375 -3.546875 "/></g></g></g><g fill="#000000" fill-opacity="1"><g transform="translate(136.704771, 167.591486)"><g/></g></g><g fill="#000000" fill-opacity="1"><g transform="translate(139.52072, 167.591486)"><g><path d="M 2.84375 -4.09375 L 2.84375 -3.546875 L 1.109375 -3.546875 L 1.109375 -2.34375 L 2.46875 -2.34375 L 2.46875 -1.796875 L 1.109375 -1.796875 L 1.109375 0 L 0.4375 0 L 0.4375 -4.09375 Z M 2.84375 -4.09375 "/></g></g></g><g fill="#000000" fill-opacity="1"><g transform="translate(143.838903, 167.591486)"><g><path d="M 2.3125 0.046875 C 1.925781 0.046875 1.570312 -0.0390625 1.25 -0.21875 C 0.9375 -0.40625 0.6875 -0.65625 0.5 -0.96875 C 0.3125 -1.289062 0.21875 -1.65625 0.21875 -2.0625 C 0.21875 -2.457031 0.3125 -2.8125 0.5 -3.125 C 0.6875 -3.445312 0.9375 -3.695312 1.25 -3.875 C 1.570312 -4.050781 1.925781 -4.140625 2.3125 -4.140625 C 2.695312 -4.140625 3.046875 -4.050781 3.359375 -3.875 C 3.679688 -3.695312 3.9375 -3.445312 4.125 -3.125 C 4.3125 -2.8125 4.40625 -2.457031 4.40625 -2.0625 C 4.40625 -1.65625 4.3125 -1.289062 4.125 -0.96875 C 3.9375 -0.65625 3.679688 -0.40625 3.359375 -0.21875 C 3.046875 -0.0390625 2.695312 0.046875 2.3125 0.046875 Z M 2.3125 -0.546875 C 2.582031 -0.546875 2.820312 -0.601562 3.03125 -0.71875 C 3.25 -0.84375 3.414062 -1.019531 3.53125 -1.25 C 3.65625 -1.488281 3.71875 -1.757812 3.71875 -2.0625 C 3.71875 -2.363281 3.65625 -2.625 3.53125 -2.84375 C 3.414062 -3.070312 3.25 -3.25 3.03125 -3.375 C 2.820312 -3.5 2.582031 -3.5625 2.3125 -3.5625 C 2.039062 -3.5625 1.796875 -3.5 1.578125 -3.375 C 1.367188 -3.25 1.203125 -3.070312 1.078125 -2.84375 C 0.960938 -2.625 0.90625 -2.363281 0.90625 -2.0625 C 0.90625 -1.757812 0.960938 -1.488281 1.078125 -1.25 C 1.203125 -1.019531 1.367188 -0.84375 1.578125 -0.71875 C 1.796875 -0.601562 2.039062 -0.546875 2.3125 -0.546875 Z M 2.3125 -0.546875 "/></g></g></g><g fill="#000000" fill-opacity="1"><g transform="translate(149.741801, 167.591486)"><g><path d="M 2.5625 0 L 1.625 -1.640625 L 1.109375 -1.640625 L 1.109375 0 L 0.4375 0 L 0.4375 -4.09375 L 1.859375 -4.09375 C 2.171875 -4.09375 2.4375 -4.035156 2.65625 -3.921875 C 2.875 -3.816406 3.035156 -3.671875 3.140625 -3.484375 C 3.242188 -3.296875 3.296875 -3.09375 3.296875 -2.875 C 3.296875 -2.601562 3.21875 -2.359375 3.0625 -2.140625 C 2.914062 -1.921875 2.679688 -1.773438 2.359375 -1.703125 L 3.375 0 Z M 1.109375 -2.171875 L 1.859375 -2.171875 C 2.109375 -2.171875 2.296875 -2.234375 2.421875 -2.359375 C 2.546875 -2.484375 2.609375 -2.65625 2.609375 -2.875 C 2.609375 -3.082031 2.546875 -3.242188 2.421875 -3.359375 C 2.296875 -3.484375 2.109375 -3.546875 1.859375 -3.546875 L 1.109375 -3.546875 Z M 1.109375 -2.171875 "/></g></g></g><g fill="#000000" fill-opacity="1"><g transform="translate(154.749252, 167.591486)"><g><path d="M 1.796875 0.046875 C 1.515625 0.046875 1.265625 0 1.046875 -0.09375 C 0.828125 -0.195312 0.65625 -0.335938 0.53125 -0.515625 C 0.40625 -0.691406 0.34375 -0.894531 0.34375 -1.125 L 1.0625 -1.125 C 1.070312 -0.945312 1.140625 -0.800781 1.265625 -0.6875 C 1.390625 -0.582031 1.566406 -0.53125 1.796875 -0.53125 C 2.023438 -0.53125 2.203125 -0.582031 2.328125 -0.6875 C 2.460938 -0.800781 2.53125 -0.945312 2.53125 -1.125 C 2.53125 -1.257812 2.488281 -1.367188 2.40625 -1.453125 C 2.320312 -1.546875 2.21875 -1.613281 2.09375 -1.65625 C 1.976562 -1.707031 1.816406 -1.757812 1.609375 -1.8125 C 1.335938 -1.882812 1.117188 -1.957031 0.953125 -2.03125 C 0.785156 -2.101562 0.644531 -2.210938 0.53125 -2.359375 C 0.414062 -2.515625 0.359375 -2.722656 0.359375 -2.984375 C 0.359375 -3.210938 0.414062 -3.414062 0.53125 -3.59375 C 0.644531 -3.769531 0.804688 -3.90625 1.015625 -4 C 1.234375 -4.09375 1.484375 -4.140625 1.765625 -4.140625 C 2.160156 -4.140625 2.484375 -4.039062 2.734375 -3.84375 C 2.984375 -3.644531 3.125 -3.375 3.15625 -3.03125 L 2.421875 -3.03125 C 2.398438 -3.175781 2.328125 -3.300781 2.203125 -3.40625 C 2.078125 -3.519531 1.90625 -3.578125 1.6875 -3.578125 C 1.5 -3.578125 1.34375 -3.523438 1.21875 -3.421875 C 1.09375 -3.328125 1.03125 -3.1875 1.03125 -3 C 1.03125 -2.875 1.066406 -2.769531 1.140625 -2.6875 C 1.222656 -2.613281 1.320312 -2.550781 1.4375 -2.5 C 1.5625 -2.457031 1.722656 -2.40625 1.921875 -2.34375 C 2.191406 -2.269531 2.410156 -2.195312 2.578125 -2.125 C 2.753906 -2.050781 2.898438 -1.9375 3.015625 -1.78125 C 3.140625 -1.625 3.203125 -1.414062 3.203125 -1.15625 C 3.203125 -0.945312 3.144531 -0.75 3.03125 -0.5625 C 2.925781 -0.382812 2.765625 -0.238281 2.546875 -0.125 C 2.335938 -0.0078125 2.085938 0.046875 1.796875 0.046875 Z M 1.796875 0.046875 "/></g></g></g><g fill="#000000" fill-opacity="1"><g transform="translate(159.591745, 167.591486)"><g><path d="M 3.96875 -4.09375 L 2.4375 0 L 1.65625 0 L 0.109375 -4.09375 L 0.828125 -4.09375 L 2.046875 -0.6875 L 3.265625 -4.09375 Z M 3.96875 -4.09375 "/></g></g></g><g fill="#000000" fill-opacity="1"><g transform="translate(164.964452, 167.591486)"><g><path d="M 1.109375 -4.09375 L 1.109375 0 L 0.4375 0 L 0.4375 -4.09375 Z M 1.109375 -4.09375 "/></g></g></g><g fill="#000000" fill-opacity="1"><g transform="translate(167.803969, 167.591486)"><g><path d="M 3.8125 0 L 3.140625 0 L 1.109375 -3.0625 L 1.109375 0 L 0.4375 0 L 0.4375 -4.09375 L 1.109375 -4.09375 L 3.140625 -1.046875 L 3.140625 -4.09375 L 3.8125 -4.09375 Z M 3.8125 0 "/></g></g></g><g fill="#000000" fill-opacity="1"><g transform="translate(173.33573, 167.591486)"><g><path d="M 1.78125 -4.09375 C 2.21875 -4.09375 2.597656 -4.007812 2.921875 -3.84375 C 3.253906 -3.675781 3.507812 -3.4375 3.6875 -3.125 C 3.863281 -2.8125 3.953125 -2.445312 3.953125 -2.03125 C 3.953125 -1.613281 3.863281 -1.25 3.6875 -0.9375 C 3.507812 -0.632812 3.253906 -0.398438 2.921875 -0.234375 C 2.597656 -0.078125 2.21875 0 1.78125 0 L 0.4375 0 L 0.4375 -4.09375 Z M 1.78125 -0.546875 C 2.257812 -0.546875 2.625 -0.675781 2.875 -0.9375 C 3.132812 -1.195312 3.265625 -1.5625 3.265625 -2.03125 C 3.265625 -2.507812 3.132812 -2.878906 2.875 -3.140625 C 2.625 -3.410156 2.257812 -3.546875 1.78125 -3.546875 L 1.109375 -3.546875 L 1.109375 -0.546875 Z M 1.78125 -0.546875 "/></g></g></g><g fill="#000000" fill-opacity="1"><g transform="translate(178.796792, 167.591486)"><g><path d="M 1.109375 -3.546875 L 1.109375 -2.34375 L 2.53125 -2.34375 L 2.53125 -1.796875 L 1.109375 -1.796875 L 1.109375 -0.546875 L 2.703125 -0.546875 L 2.703125 0 L 0.4375 0 L 0.4375 -4.09375 L 2.703125 -4.09375 L 2.703125 -3.546875 Z M 1.109375 -3.546875 "/></g></g></g><g fill="#000000" fill-opacity="1"><g transform="translate(183.168003, 167.591486)"><g><path d="M 2.5625 0 L 1.625 -1.640625 L 1.109375 -1.640625 L 1.109375 0 L 0.4375 0 L 0.4375 -4.09375 L 1.859375 -4.09375 C 2.171875 -4.09375 2.4375 -4.035156 2.65625 -3.921875 C 2.875 -3.816406 3.035156 -3.671875 3.140625 -3.484375 C 3.242188 -3.296875 3.296875 -3.09375 3.296875 -2.875 C 3.296875 -2.601562 3.21875 -2.359375 3.0625 -2.140625 C 2.914062 -1.921875 2.679688 -1.773438 2.359375 -1.703125 L 3.375 0 Z M 1.109375 -2.171875 L 1.859375 -2.171875 C 2.109375 -2.171875 2.296875 -2.234375 2.421875 -2.359375 C 2.546875 -2.484375 2.609375 -2.65625 2.609375 -2.875 C 2.609375 -3.082031 2.546875 -3.242188 2.421875 -3.359375 C 2.296875 -3.484375 2.109375 -3.546875 1.859375 -3.546875 L 1.109375 -3.546875 Z M 1.109375 -2.171875 "/></g></g></g></svg>